<svg width="163" height="78" viewBox="0 0 163 78" fill="none" xmlns="http://www.w3.org/2000/svg">
<g clip-path="url(#clip0_3_743)">
<path fill-rule="evenodd" clip-rule="evenodd" d="M37.0873 67.4622C40.1868 65.5383 42.7919 63.1907 44.996 60.746C46.574 63.9687 49.7407 66.1684 53.0987 66.1684C55.6863 66.1684 58.274 64.8746 60.053 62.4486C60.7 64.7129 62.3173 66.1684 65.0667 66.1684C67.1299 66.1684 71.6279 64.0627 75.7063 60.9426L75.2555 63.2572C75.0937 63.9041 75.0937 64.3893 75.0937 64.7128C75.2555 65.6832 75.9024 66.1683 76.8728 66.1683C78.8135 66.1683 81.5629 64.3893 82.2099 61.4782L83.1802 57.4349C84.3123 52.2596 91.9136 44.4965 94.0161 44.4965C94.1779 44.4965 94.5013 44.6583 94.5013 44.9817C94.5655 45.4953 94.1966 46.4674 93.6575 47.8879C92.8383 50.0466 91.626 53.2408 90.9433 57.4349C90.6198 58.7288 90.6198 60.0226 90.7815 60.993C91.105 64.0659 92.884 66.1683 96.2803 66.1683C99.1868 66.1683 105.488 63.6873 109.905 58.7253C110.238 61.4188 110.808 63.7097 111.645 65.1981C111.968 65.845 112.777 66.0067 113.586 66.0067C114.556 66.0067 115.85 65.6832 117.305 64.8746C120.702 63.0956 125.068 58.8906 129.273 52.7448C129.92 52.9066 130.405 52.9066 130.891 52.9066C132.569 52.9066 134.444 52.3143 136.186 51.2663C135.462 53.4519 135.18 55.6839 135.419 57.7584C136.066 62.6103 140.109 66.3301 144.476 66.3301C146.902 66.3301 149.49 64.8745 151.269 62.6103C151.916 65.6832 153.856 68.9178 158.708 70.8585C159.032 71.0202 159.355 71.0202 159.679 71.0202C160.649 71.0202 161.296 70.3733 161.134 69.5647C161.134 69.2412 160.972 68.756 160.487 68.4326C159.355 67.4622 158.061 65.6832 157.738 62.9337C157.576 61.6399 157.576 60.0226 158.385 58.4053C159.355 54.0386 159.517 52.7448 159.517 52.2596C159.355 51.1275 158.546 50.6423 157.576 50.6423C155.635 50.6423 152.886 52.583 152.239 55.3324C151.107 59.5374 148.196 62.2868 146.255 62.2868C143.829 62.2868 142.535 59.6991 142.212 56.9497C141.403 50.1571 145.608 41.9089 151.916 41.9089C153.695 41.9089 155.797 42.5558 155.959 44.4965C156.158 46.2853 155.074 46.7307 154.247 47.0709C153.727 47.2843 153.309 47.4564 153.371 47.8929C153.533 49.1867 155.635 49.5102 157.091 49.5102C158.385 49.5102 162.59 48.5398 161.943 43.8496C161.458 40.1298 157.414 38.3508 152.886 38.3508C147.48 38.3508 142.879 41.088 139.746 44.8755C139.313 45.1313 138.856 45.5884 138.33 46.1139C137.36 47.246 135.419 48.3781 132.993 48.3781C132.67 48.3781 132.023 48.2164 132.023 48.2164C133.64 45.1435 134.772 41.909 134.772 39.1595C134.772 34.6311 132.023 32.3669 128.95 32.3669C125.068 32.3669 121.025 35.7632 121.025 42.5559C121.025 46.5991 122.642 49.8337 125.392 51.6127C122.157 56.7881 117.791 61.1548 117.144 61.1548C116.92 61.1548 116.851 60.9235 116.776 60.6739C116.743 60.5619 116.708 60.4463 116.658 60.3462C116.173 58.5671 115.688 55.0091 115.688 52.9066C115.688 49.0251 116.335 45.1435 117.791 41.1003C117.952 40.6151 118.114 40.1299 118.114 39.8065C118.114 38.6744 117.305 38.1892 116.335 38.1892C114.394 38.1892 111.321 40.4534 110.513 42.8793C109.866 45.1435 109.542 48.3781 109.542 52.2597C109.542 52.9715 109.554 53.6776 109.577 54.3729C105.717 59.5758 100.955 61.3164 99.5149 61.3164C97.7359 61.3164 97.4125 59.6992 97.7359 59.0522C98.868 54.3621 100.324 49.025 101.617 45.3052C102.264 43.5262 102.588 41.9089 102.426 40.9385C102.103 39.1595 100.971 38.3508 99.3532 38.3508C95.4717 38.3508 89.326 42.2323 85.2827 47.5694L86.5766 41.7471C86.7383 41.1002 86.7383 40.615 86.7383 40.2916C86.5766 39.1595 85.9296 38.6743 84.9593 38.6743C80.4308 38.6743 79.6222 40.9385 79.137 43.2027C79.0433 43.7647 77.7562 50.4024 76.6895 55.8898C73.2383 59.0571 69.3713 61.1548 68.3013 61.1548C67.0074 61.1548 66.5222 60.1844 66.5222 59.3758C66.5222 58.8173 66.8437 57.2944 67.1474 55.8556C67.3713 54.7946 67.5857 53.7792 67.6543 53.23C67.8161 52.5831 67.8161 52.0979 67.8161 51.7745C67.6544 50.8041 66.8457 50.3189 65.8753 50.3189C63.9346 50.3189 61.1852 52.2597 60.5382 55.0091C59.5679 59.214 56.6567 61.9635 54.716 61.9635C52.29 61.9635 50.9962 59.3758 50.6727 56.7881C49.8641 50.9658 53.5838 41.5855 60.3765 41.5855C62.3173 41.5855 64.258 42.2324 64.4197 44.1732C64.6156 46.0337 63.6256 46.4713 62.8499 46.8142C62.3445 47.0376 61.93 47.2208 61.9938 47.7312C62.1555 49.0251 64.258 49.3485 65.5519 49.3485C67.0074 49.3485 71.0507 48.3781 70.4037 43.688C69.9186 39.9682 66.037 38.0274 61.3469 38.0274C50.4692 38.0274 43.2306 48.7865 44.013 57.3154C41.2506 60.548 38.4907 62.4919 33.5293 65.0362C30.7799 66.4918 27.5453 67.3005 24.6341 67.3005C15.5773 67.3005 11.2105 59.0522 10.4019 51.9361C8.13768 33.8224 24.3107 8.75425 35.47 8.75425C38.0577 8.75425 40.3219 11.0185 40.8071 14.5765C41.454 20.0753 41.2923 23.9569 35.6318 28.647C34.9848 29.1322 34.8231 29.9409 35.1466 30.4261C35.6318 31.073 37.2491 31.2347 40.3219 29.6174C46.4677 26.5445 48.5701 21.8544 47.9232 16.3556C47.2763 10.2098 41.9392 5.1962 34.8231 5.1962C31.265 5.1962 27.5453 6.16658 24.1489 8.26906C9.43152 17.3259 -0.110542 37.7039 1.66849 53.23C2.31541 58.2436 4.41789 63.5807 8.29941 67.3005C10.8871 69.7264 15.5773 72.6375 21.2378 72.6375C27.3835 72.6375 32.5589 70.3733 37.0873 67.4622ZM127.979 46.1139C126.362 44.3349 125.068 41.5855 125.068 38.9978C125.068 37.5422 125.554 35.9249 126.686 35.9249C127.656 35.9249 128.95 37.3805 128.95 40.7768C128.95 42.5559 128.626 44.3349 127.979 46.1139Z" fill="#868686"/>
</g>
<defs>
<clipPath id="clip0_3_743">
<rect width="161.73" height="77.6303" fill="white" transform="translate(0.860291 0.182617)"/>
</clipPath>
</defs>
</svg>
