<svg width="203" height="79" viewBox="0 0 203 79" fill="none" xmlns="http://www.w3.org/2000/svg">
<g clip-path="url(#clip0_3_715)">
<path d="M10.393 17.1821C6.25991 18.9122 1.71623 23.7998 0.281188 29.9349C-1.53618 37.7083 6.02674 40.9954 6.64706 39.9176C7.37716 38.6511 5.29187 38.2229 4.86263 34.1897C4.30787 28.9805 6.72962 23.1598 9.77747 20.6058C10.344 20.1313 10.3171 20.7918 10.3171 22.0133C10.3171 24.1978 10.1964 43.808 10.1964 47.9007C10.1964 53.4385 9.96762 55.1873 9.55682 56.9153C9.14058 58.6665 8.47141 59.8497 8.97847 60.3055C9.54499 60.8153 11.9638 59.6026 13.3641 57.6482C15.0432 55.3043 15.631 52.4893 15.7366 49.4323C15.864 45.7472 15.8586 39.8997 15.864 36.5643C15.8691 33.5052 15.9155 24.5477 15.8104 19.1627C15.7846 17.8419 12.1215 16.4562 10.3928 17.1805L10.393 17.1821ZM157.16 43.099C157.027 45.978 156.39 48.2283 155.599 49.8156C154.067 52.8885 150.89 53.8427 149.541 49.4253C148.806 47.0173 148.772 42.9959 149.3 39.6357C149.838 36.2126 151.34 33.6274 153.828 33.8605C156.282 34.091 157.43 37.2528 157.16 43.099ZM115.795 60.9611C115.762 65.7447 115.009 69.939 113.394 71.1572C111.105 72.8845 108.027 71.5888 108.664 68.0981C109.228 65.0092 111.895 61.8546 115.802 58.0002C115.802 58.0002 115.81 58.8792 115.795 60.9611ZM115.17 43.0711C115.03 45.6933 114.35 48.3275 113.608 49.816C112.077 52.8888 108.877 53.8495 107.551 49.4256C106.644 46.4031 106.861 42.4911 107.31 40.0262C107.892 36.8281 109.303 33.8612 111.838 33.8612C114.302 33.8612 115.517 36.5645 115.17 43.0711ZM91.2068 43.031C91.0566 45.8082 90.5148 48.1297 89.6453 49.816C88.0723 52.8677 84.9603 53.8355 83.5878 49.4256C82.5983 46.2458 82.9352 41.9099 83.3468 39.5677C83.9576 36.0919 85.4871 33.6277 87.8748 33.8612C90.3275 34.1008 91.5199 37.2528 91.2068 43.031ZM201.023 46.2749C200.423 46.2749 200.15 46.8929 199.924 47.9332C199.138 51.5503 198.313 52.3671 197.249 52.3671C196.06 52.3671 194.992 50.576 194.717 46.9906C194.501 44.1714 194.536 38.9811 194.812 33.8181C194.868 32.7573 194.576 31.7077 191.73 30.6741C190.506 30.2295 188.726 29.5748 187.84 31.7138C185.337 37.7568 184.357 42.5544 184.127 44.5033C184.115 44.6042 183.991 44.6248 183.969 44.3891C183.822 42.8281 183.494 39.9916 183.453 34.0319C183.445 32.8691 183.199 31.8793 181.916 31.069C181.083 30.5432 178.554 29.6133 177.643 30.7196C176.855 31.6244 175.941 34.0594 174.992 36.9458C174.22 39.2917 173.683 40.8787 173.683 40.8787C173.683 40.8787 173.693 34.5489 173.702 32.1478C173.706 31.242 173.085 30.9402 172.898 30.8855C172.054 30.6407 170.393 30.2319 169.688 30.2319C168.817 30.2319 168.604 30.7182 168.604 31.4269C168.604 31.5197 168.467 39.7608 168.467 45.5233C168.467 45.7736 168.467 46.0467 168.47 46.3368C167.988 48.9853 166.427 52.5807 164.73 52.5807C163.031 52.5807 162.229 51.0776 162.229 44.2077C162.229 40.2 162.349 38.4574 162.408 35.5588C162.443 33.8893 162.509 32.6072 162.505 32.3162C162.493 31.424 160.95 30.9743 160.232 30.8081C159.511 30.6405 158.884 30.5756 158.394 30.6035C157.702 30.6426 157.212 31.097 157.212 31.7221C157.212 32.0572 157.215 32.6945 157.215 32.6945C156.323 31.2925 154.888 30.3166 153.933 30.0338C151.362 29.2701 148.678 29.9468 146.654 32.7792C145.046 35.0296 144.076 37.5785 143.694 41.2405C143.415 43.9177 143.506 46.6325 144.002 48.9285C143.403 51.5193 142.29 52.5807 141.072 52.5807C139.304 52.5807 138.022 49.6941 138.171 44.7019C138.269 41.4184 138.926 39.1141 139.644 35.7804C139.95 34.3593 139.701 33.6153 139.077 32.9022C138.505 32.2482 137.285 31.9141 135.532 32.3251C134.284 32.618 132.498 32.9331 130.865 33.1751C130.865 33.1751 130.963 32.7819 131.044 32.0885C131.469 28.4523 127.518 28.7473 126.257 29.9087C125.504 30.6021 124.992 31.4199 124.798 32.8903C124.489 35.2237 126.393 36.3243 126.393 36.3243C125.768 39.1824 124.238 42.9161 122.657 45.6156C121.811 47.0619 121.164 48.1336 120.328 49.2728C120.325 48.8486 120.322 48.4244 120.321 48.0022C120.302 41.9932 120.382 37.2639 120.417 35.5594C120.451 33.8898 120.518 32.6417 120.515 32.3508C120.505 31.6982 120.124 31.4518 119.332 31.1397C118.631 30.8638 117.802 30.6727 116.942 30.6061C115.857 30.5215 115.204 31.0969 115.221 31.7774C115.224 31.9059 115.224 32.6948 115.224 32.6948C114.332 31.2927 112.897 30.3169 111.942 30.0341C109.37 29.2707 106.687 29.9474 104.663 32.7794C103.055 35.0298 102.001 38.1878 101.703 41.2128C101.425 44.0322 101.476 46.4282 101.855 48.4464C101.446 50.4675 100.271 52.5809 98.9412 52.5809C97.2417 52.5809 96.2747 51.0778 96.2747 44.208C96.2747 40.2003 96.395 38.4577 96.4542 35.5594C96.4885 33.8898 96.5548 32.6074 96.551 32.3168C96.5386 31.4246 94.9957 30.9749 94.2778 30.8084C93.5267 30.6347 92.8782 30.5708 92.3802 30.6075C91.7232 30.6564 91.2613 31.2448 91.2613 31.6836V32.6948C90.3691 31.2927 88.934 30.3169 87.9793 30.0341C85.4076 29.2707 82.7391 29.9583 80.7001 32.7794C79.3704 34.6189 78.294 36.6583 77.74 41.1727C77.5799 42.4773 77.5092 43.699 77.5183 44.8409C76.9881 48.0835 74.6462 51.8209 72.7306 51.8209C71.6096 51.8209 70.542 49.6467 70.542 45.0128C70.542 38.8404 70.9241 30.0521 70.9887 29.2051C70.9887 29.2051 73.409 29.164 73.8778 29.1585C75.085 29.1452 76.1785 29.1738 77.7865 29.0915C78.5931 29.0504 79.3701 26.1559 78.5377 25.7976C78.1604 25.6355 75.4939 25.4934 74.4369 25.471C73.5481 25.4509 71.0736 25.2677 71.0736 25.2677C71.0736 25.2677 71.2956 19.4345 71.3473 18.8183C71.3911 18.3047 70.7266 18.0403 70.3456 17.8798C69.419 17.4879 68.59 17.3003 67.6074 17.0977C66.2499 16.8177 65.634 17.0916 65.5137 18.2374C65.3325 19.9763 65.2387 25.0696 65.2387 25.0696C64.2425 25.0696 60.8394 24.8748 59.8429 24.8748C58.917 24.8748 57.9177 28.8567 59.1978 28.9056C60.6705 28.9627 63.2371 29.012 64.9385 29.0633C64.9385 29.0633 64.8628 37.9964 64.8628 40.7543C64.8628 41.0477 64.8653 41.3303 64.8658 41.6045C63.9294 46.4853 60.6311 49.1219 60.6311 49.1219C61.3394 45.8929 59.8925 43.4681 57.2862 41.4155C56.326 40.6591 54.4304 39.2271 52.3095 37.658C52.3095 37.658 53.5378 36.4473 54.6272 34.0116C55.3991 32.2863 55.4324 30.3118 53.5378 29.8764C50.4074 29.1565 47.8263 31.4556 47.0564 33.91C46.4599 35.8113 46.7781 37.2222 47.9466 38.6878C48.0319 38.7949 48.1244 38.9043 48.2199 39.0145C47.5132 40.3765 46.5425 42.2102 45.7203 43.6323C43.4382 47.5805 41.7143 50.7034 40.4115 50.7034C39.37 50.7034 39.384 47.5328 39.384 44.5643C39.384 42.0051 39.573 38.1576 39.7239 34.1741C39.7738 32.8566 39.1151 32.1061 38.0108 31.4263C37.3399 31.0134 35.9079 30.2014 35.0786 30.2014C33.8372 30.2014 30.2558 30.3703 26.8718 40.1589C26.4454 41.3927 25.6076 43.6408 25.6076 43.6408L25.6797 31.8696C25.6797 31.5936 25.5327 31.3268 25.1961 31.1442C24.6259 30.8346 23.1029 30.2014 21.7486 30.2014C21.1033 30.2014 20.7813 30.5015 20.7813 31.0997L20.6632 49.5158C20.6632 50.9151 20.6997 52.5475 20.838 53.2615C20.9759 53.9763 21.1992 54.5578 21.4757 54.9038C21.7519 55.2492 22.0713 55.5126 22.598 55.6213C23.0882 55.7222 25.7725 56.0669 25.912 55.0411C26.0792 53.8118 26.0856 52.4821 27.4951 47.523C29.6893 39.8023 32.5503 36.0353 33.8952 34.6975C34.1304 34.4636 34.3989 34.4497 34.386 34.8324C34.3286 36.5251 34.1267 40.7547 33.9907 44.3481C33.6264 53.9644 35.3758 55.7467 37.8757 55.7467C39.7883 55.7467 42.4843 53.8464 45.3744 49.0359C47.1762 46.0381 48.9257 43.0986 50.1826 40.9801C51.0585 41.7909 52.0415 42.6636 53.0238 43.5959C55.3065 45.7625 56.056 47.8212 55.5587 49.7742C55.1783 51.2672 53.746 52.8059 51.1968 51.3103C50.4538 50.874 50.1367 50.5369 49.3896 50.045C48.9882 49.7808 48.3754 49.7018 48.0079 49.9786C47.0535 50.6983 46.5077 51.6136 46.196 52.7468C45.8928 53.8494 46.9971 54.4323 48.1419 54.9422C49.1275 55.381 51.2461 55.7786 52.5972 55.8239C57.8615 55.9999 62.0785 53.2821 65.0142 46.2715C65.5397 52.326 67.7761 55.7522 71.6618 55.7522C74.2596 55.7522 76.8642 52.3943 78.0032 49.0909C78.3302 50.4375 78.8142 51.6084 79.4393 52.5986C82.4334 57.3425 88.2418 56.3215 91.1595 52.2931C92.0616 51.0484 92.1989 50.6011 92.1989 50.6011C92.6244 54.4048 95.6875 55.7338 97.4414 55.7338C99.4057 55.7338 101.434 54.8052 102.855 51.6052C103.022 51.9524 103.204 52.2841 103.402 52.5985C106.396 57.3424 112.205 56.3214 115.122 52.293C115.26 52.1041 115.379 51.9327 115.484 51.7788L115.569 54.2773C115.569 54.2773 113.905 55.8042 112.883 56.7408C108.386 60.8665 104.967 63.9966 104.715 67.6416C104.393 72.2893 108.162 74.0166 111.014 74.243C114.042 74.4833 116.636 72.8104 118.23 70.4691C119.632 68.4084 120.549 63.9731 120.482 59.5925C120.455 57.8384 120.411 55.608 120.376 53.2172C121.957 51.3817 123.738 49.062 125.377 46.3466C127.164 43.3874 129.079 39.4134 130.06 36.3207C130.06 36.3207 131.723 36.335 133.499 36.2188C134.067 36.1817 134.23 36.2976 134.125 36.714C133.998 37.217 131.882 45.3806 133.813 50.8189C135.136 54.5417 138.116 55.7395 139.883 55.7395C141.952 55.7395 143.931 54.1773 144.991 51.8576C145.119 52.1162 145.253 52.3665 145.398 52.5975C148.392 57.3414 154.181 56.3142 157.119 52.292C157.782 51.3845 158.158 50.6 158.158 50.6C158.788 54.5366 161.85 55.7528 163.603 55.7528C165.43 55.7528 167.163 55.0039 168.57 51.6761C168.629 53.1413 168.721 54.3395 168.867 54.7172C168.956 54.9482 169.475 55.2382 169.853 55.3783C171.524 55.9979 173.228 55.7049 173.859 55.5774C174.295 55.489 174.636 55.1386 174.683 54.2338C174.805 51.858 174.73 47.8662 175.45 44.8996C176.659 39.9209 177.787 37.9896 178.322 37.0335C178.621 36.4978 178.959 36.4094 178.971 36.9764C178.997 38.1235 179.054 41.4922 179.522 46.0182C179.866 49.3469 180.325 51.3144 180.679 51.9371C181.686 53.7178 182.931 53.8021 183.945 53.8021C184.589 53.8021 185.938 53.624 185.817 52.4908C185.758 51.9384 185.861 48.5249 187.053 43.6199C187.832 40.4168 189.129 37.5225 189.597 36.4645C189.77 36.0743 189.85 36.3819 189.848 36.4418C189.749 38.6477 189.528 45.863 190.426 49.8091C191.645 55.155 195.169 55.7532 196.397 55.7532C199.018 55.7532 201.162 53.759 201.885 48.5117C202.059 47.249 201.801 46.2739 201.029 46.2739" fill="#868686"/>
</g>
<defs>
<clipPath id="clip0_3_715">
<rect width="202.162" height="77.6303" fill="white" transform="translate(0 0.547363)"/>
</clipPath>
</defs>
</svg>
